<svg width="32" height="32" viewBox="0 0 32 32" fill="none" xmlns="http://www.w3.org/2000/svg">
<path d="M9.75212 9.02561C10.5484 9.33558 11.2663 9.83423 11.9059 10.5216C13.2765 11.9501 13.9618 13.7729 13.9618 15.9899C13.9618 18.2069 13.2765 20.0364 11.9059 21.4784C11.2663 22.1658 10.5484 22.6644 9.75212 22.9744C8.92977 23.3248 8.08785 23.5 7.22634 23.5H1.68529C1.50255 23.5 1.34264 23.4292 1.20559 23.2877C1.06853 23.1462 1 22.9811 1 22.7925V21.3369C1 21.1348 1.06853 20.9629 1.20559 20.8214C1.34264 20.6799 1.50255 20.6092 1.68529 20.6092H7.1676C8.32933 20.6092 9.27242 20.1712 9.99687 19.2951C10.7213 18.4191 11.0835 17.3208 11.0835 16C11.0835 14.6792 10.7213 13.5809 9.99687 12.7049C9.27242 11.8288 8.32933 11.3908 7.1676 11.3908H1.68529C1.50255 11.3908 1.34264 11.3201 1.20559 11.1786C1.06853 11.0371 1 10.8652 1 10.6631V9.20755C1 9.01887 1.06853 8.85377 1.20559 8.71226C1.34264 8.57075 1.50255 8.5 1.68529 8.5H7.22634C8.08785 8.5 8.92977 8.6752 9.75212 9.02561V9.02561ZM30.9452 22.5094C31.0365 22.7251 31.0137 22.9441 30.8766 23.1664C30.7396 23.3888 30.5536 23.5 30.3186 23.5H17.2786C17.1611 23.5 17.0501 23.4697 16.9457 23.409C16.8413 23.3484 16.763 23.2709 16.7107 23.1765C16.5672 22.9609 16.5476 22.7385 16.652 22.5094L17.259 21.0337C17.3112 20.8989 17.396 20.7911 17.5135 20.7102C17.631 20.6294 17.755 20.5889 17.8855 20.5889H27.0097L23.7986 12.6644L21.1749 19.1334C21.1227 19.2682 21.0411 19.3726 20.9302 19.4468C20.8192 19.5209 20.6919 19.558 20.5484 19.558H18.9037C18.6557 19.558 18.4599 19.4501 18.3163 19.2345C18.2641 19.1402 18.2314 19.0323 18.2184 18.9111C18.2053 18.7898 18.2184 18.6752 18.2575 18.5674L22.2322 8.94474C22.2844 8.80997 22.366 8.70216 22.477 8.62129C22.5879 8.54043 22.7152 8.5 22.8588 8.5H24.7384C24.882 8.5 25.0093 8.54043 25.1202 8.62129C25.2312 8.70216 25.3128 8.80997 25.365 8.94474L30.9452 22.5094Z" fill="#4143E1"/>
</svg>
