<svg width="32" height="16" viewBox="0 0 32 16" fill="none" xmlns="http://www.w3.org/2000/svg">
<path d="M9.3356 0.560647C10.1849 0.891285 10.9507 1.42318 11.6329 2.15633C13.0949 3.68014 13.8259 5.62444 13.8259 7.98922C13.8259 10.354 13.0949 12.3055 11.6329 13.8437C10.9507 14.5768 10.1849 15.1087 9.3356 15.4394C8.45843 15.8131 7.56037 16 6.64143 16H0.730975C0.536048 16 0.365488 15.9245 0.219293 15.7736C0.0730975 15.6226 0 15.4465 0 15.2453V13.6927C0 13.4771 0.0730975 13.2938 0.219293 13.1429C0.365488 12.9919 0.536048 12.9164 0.730975 12.9164H6.57878C7.81795 12.9164 8.82391 12.4492 9.59666 11.5148C10.3694 10.5804 10.7558 9.4088 10.7558 8C10.7558 6.59119 10.3694 5.41959 9.59666 4.48517C8.82391 3.55076 7.81795 3.08356 6.57878 3.08356H0.730975C0.536048 3.08356 0.365488 3.00809 0.219293 2.85714C0.0730975 2.7062 0 2.52291 0 2.30728V0.754717C0 0.553459 0.0730975 0.377359 0.219293 0.226415C0.365488 0.0754717 0.536048 0 0.730975 0H6.64143C7.56037 0 8.45843 0.186882 9.3356 0.560647V0.560647ZM31.9415 14.9434C32.039 15.1734 32.0146 15.407 31.8684 15.6442C31.7222 15.8814 31.5238 16 31.2732 16H17.3638C17.2385 16 17.1201 15.9677 17.0087 15.903C16.8974 15.8383 16.8138 15.7556 16.7581 15.655C16.605 15.425 16.5841 15.1878 16.6955 14.9434L17.3429 13.3693C17.3986 13.2255 17.4891 13.1105 17.6144 13.0243C17.7397 12.938 17.872 12.8949 18.0112 12.8949H27.7436L24.3185 4.44205L21.5199 11.3423C21.4642 11.4861 21.3772 11.5975 21.2588 11.6765C21.1405 11.7556 21.0047 11.7951 20.8516 11.7951H19.0972C18.8327 11.7951 18.6239 11.6801 18.4707 11.4501C18.415 11.3495 18.3802 11.2345 18.3663 11.1051C18.3523 10.9757 18.3663 10.8535 18.408 10.7385L22.6477 0.474394C22.7034 0.330638 22.7904 0.215633 22.9088 0.12938C23.0271 0.0431266 23.1629 0 23.316 0H25.321C25.4741 0 25.6099 0.0431266 25.7282 0.12938C25.8466 0.215633 25.9336 0.330638 25.9893 0.474394L31.9415 14.9434Z" fill="currentColor"/>
</svg>
