<svg viewBox="0 0 29 25" fill="currentcolor" xmlns="http://www.w3.org/2000/svg">
<path id="menu-icon-mid" d="M26.823 10.6831H2.11045C1.3648 10.6831 0.7612 11.2867 0.7612 12.0323C0.7612 12.778 1.36481 13.3816 2.11045 13.3816H26.859C27.6047 13.3816 28.2083 12.778 28.2083 12.0323C28.2083 11.2867 27.6047 10.6831 26.8236 10.6831H26.823Z" />
<path id="menu-icon-bottom" d="M26.823 21.3348H2.11045C1.3648 21.3348 0.7612 21.9384 0.7612 22.6841C0.7612 23.4297 1.36481 24.0333 2.11045 24.0333H26.859C27.6047 24.0333 28.2083 23.4297 28.2083 22.6841C28.2083 21.9384 27.6047 21.3348 26.8236 21.3348H26.823Z" />
<path id="menu-icon-top" d="M26.823 0.0306194H2.11045C1.3648 0.0306194 0.7612 0.634228 0.7612 1.37987C0.7612 2.12552 1.36481 2.72913 2.11045 2.72913H26.859C27.6047 2.72913 28.2083 2.12552 28.2083 1.37987C28.2083 0.63422 27.6047 0.0306194 26.8236 0.0306194H26.823Z"/>
</svg>
